<svg xmlns="http://www.w3.org/2000/svg" viewBox="0 0 420 380"><style>
.bp{ color:#1C1E22; }
.stroke{ fill:none; stroke:currentColor; stroke-width:1.6; stroke-linecap:round; stroke-linejoin:round; }
.stroke-soft{ fill:none; stroke:#8A8E93; stroke-width:1; stroke-dasharray:2 4; }
.fill-body{ fill:#EBE8E2; stroke:currentColor; stroke-width:1.6; }
.fill-accent{ fill:#B8703A; opacity:0.85; }
.lead{ stroke:#C7C2B8; stroke-width:1; fill:none; }
text{ font-family:'JetBrains Mono', 'SF Mono', Menlo, monospace; fill:#8A8E93; }
.label-strong{ fill:#54595F; font-weight:500; }
</style><rect x="0" y="0" width="420" height="380" fill="#FFFFFF"/><g class="bp">
        <g font-size="9">
        <!-- stack of offset slabs -->
        <g transform="translate(60,20)">
          <path class="fill-body" d="M0 20 L200 0 L240 12 L40 32 Z"/>
          <path class="lead" d="M240 12 L300 12"/><circle cx="300" cy="12" r="2.5" fill="#8A8E93"/>
        </g>
        <g transform="translate(50,58)">
          <path class="fill-body" d="M0 20 L200 0 L240 12 L40 32 Z" fill="#EFDCC7"/>
          <path class="lead" d="M240 12 L300 30"/><circle cx="300" cy="30" r="2.5" fill="#8A8E93"/>
        </g>
        <g transform="translate(40,96)">
          <path d="M0 20 L200 0 L240 12 L40 32 Z" fill="#B8703A" opacity="0.8" stroke="#1C1E22" stroke-width="1.6"/>
          <path class="lead" d="M240 12 L300 48"/><circle cx="300" cy="48" r="2.5" fill="#B8703A"/>
        </g>
        <g transform="translate(30,134)">
          <path class="fill-body" d="M0 20 L200 0 L240 12 L40 32 Z"/>
          <path class="lead" d="M240 12 L300 66"/><circle cx="300" cy="66" r="2.5" fill="#8A8E93"/>
        </g>
        <g transform="translate(20,172)">
          <path class="fill-body" d="M0 20 L200 0 L240 12 L40 32 Z"/>
          <circle cx="90" cy="18" r="3" class="fill-accent"/>
          <circle cx="150" cy="10" r="3" class="fill-accent"/>
          <path class="lead" d="M240 12 L300 84"/><circle cx="300" cy="84" r="2.5" fill="#8A8E93"/>
        </g>
        <g transform="translate(10,210)">
          <path class="fill-body" d="M0 20 L200 0 L240 12 L40 32 Z" fill="#EBE8E2"/>
          <path class="lead" d="M240 12 L300 102"/><circle cx="300" cy="102" r="2.5" fill="#8A8E93"/>
        </g>
        <g transform="translate(0,248)">
          <path class="fill-body" d="M0 24 L200 2 L246 16 L46 38 Z" stroke-width="2"/>
          <path class="lead" d="M246 16 L300 120"/><circle cx="300" cy="120" r="2.5" fill="#8A8E93"/>
        </g>
        </g>
      </g></svg>